<mxfile host="Electron" modified="2024-01-16T18:54:20.963Z" agent="Mozilla/5.0 (Windows NT 10.0; Win64; x64) AppleWebKit/537.36 (KHTML, like Gecko) draw.io/22.1.18 Chrome/120.0.6099.199 Electron/28.1.2 Safari/537.36" etag="ME-Vndee_vfx_32P31XO" version="22.1.18" type="device">
  <diagram name="Page-1" id="uiqpxPCHIxC3Hkr9rHcT">
    <mxGraphModel dx="227" dy="150" grid="1" gridSize="10" guides="1" tooltips="1" connect="1" arrows="1" fold="1" page="1" pageScale="1" pageWidth="1100" pageHeight="850" math="0" shadow="0">
      <root>
        <mxCell id="0" />
        <mxCell id="1" parent="0" />
        <mxCell id="_7lWE-MWx_kLqU9YCzZ2-27" value="&lt;font style=&quot;font-size: 3px;&quot;&gt;0,19&lt;/font&gt;" style="rounded=0;whiteSpace=wrap;html=1;" parent="1" vertex="1">
          <mxGeometry y="650" width="10" height="10" as="geometry" />
        </mxCell>
        <mxCell id="_7lWE-MWx_kLqU9YCzZ2-28" value="" style="rounded=0;whiteSpace=wrap;html=1;" parent="1" vertex="1">
          <mxGeometry x="10" y="650" width="10" height="10" as="geometry" />
        </mxCell>
        <mxCell id="_7lWE-MWx_kLqU9YCzZ2-29" value="" style="rounded=0;whiteSpace=wrap;html=1;" parent="1" vertex="1">
          <mxGeometry x="20" y="650" width="10" height="10" as="geometry" />
        </mxCell>
        <mxCell id="_7lWE-MWx_kLqU9YCzZ2-30" value="&lt;font style=&quot;font-size: 3px;&quot;&gt;3,19&lt;/font&gt;" style="rounded=0;whiteSpace=wrap;html=1;" parent="1" vertex="1">
          <mxGeometry x="30" y="650" width="10" height="10" as="geometry" />
        </mxCell>
        <mxCell id="_7lWE-MWx_kLqU9YCzZ2-31" value="&lt;font style=&quot;font-size: 3px;&quot;&gt;4,19&lt;/font&gt;" style="rounded=0;whiteSpace=wrap;html=1;" parent="1" vertex="1">
          <mxGeometry x="40" y="650" width="10" height="10" as="geometry" />
        </mxCell>
        <mxCell id="_7lWE-MWx_kLqU9YCzZ2-32" value="&lt;font style=&quot;font-size: 3px;&quot;&gt;5,19&lt;/font&gt;" style="rounded=0;whiteSpace=wrap;html=1;" parent="1" vertex="1">
          <mxGeometry x="50" y="650" width="10" height="10" as="geometry" />
        </mxCell>
        <mxCell id="_7lWE-MWx_kLqU9YCzZ2-33" value="&lt;font style=&quot;font-size: 3px;&quot;&gt;6,19&lt;/font&gt;" style="rounded=0;whiteSpace=wrap;html=1;" parent="1" vertex="1">
          <mxGeometry x="60" y="650" width="10" height="10" as="geometry" />
        </mxCell>
        <mxCell id="_7lWE-MWx_kLqU9YCzZ2-34" value="&lt;font style=&quot;font-size: 3px;&quot;&gt;7,19&lt;/font&gt;" style="rounded=0;whiteSpace=wrap;html=1;" parent="1" vertex="1">
          <mxGeometry x="70" y="650" width="10" height="10" as="geometry" />
        </mxCell>
        <mxCell id="_7lWE-MWx_kLqU9YCzZ2-35" value="&lt;font style=&quot;font-size: 3px;&quot;&gt;8.19&lt;/font&gt;" style="rounded=0;whiteSpace=wrap;html=1;" parent="1" vertex="1">
          <mxGeometry x="80" y="650" width="10" height="10" as="geometry" />
        </mxCell>
        <mxCell id="_7lWE-MWx_kLqU9YCzZ2-36" value="&lt;font style=&quot;font-size: 3px;&quot;&gt;9,19&lt;/font&gt;" style="rounded=0;whiteSpace=wrap;html=1;" parent="1" vertex="1">
          <mxGeometry x="90" y="650" width="10" height="10" as="geometry" />
        </mxCell>
        <mxCell id="_7lWE-MWx_kLqU9YCzZ2-37" value="" style="rounded=0;whiteSpace=wrap;html=1;" parent="1" vertex="1">
          <mxGeometry y="660" width="10" height="10" as="geometry" />
        </mxCell>
        <mxCell id="_7lWE-MWx_kLqU9YCzZ2-38" value="" style="rounded=0;whiteSpace=wrap;html=1;" parent="1" vertex="1">
          <mxGeometry x="10" y="660" width="10" height="10" as="geometry" />
        </mxCell>
        <mxCell id="_7lWE-MWx_kLqU9YCzZ2-39" value="" style="rounded=0;whiteSpace=wrap;html=1;" parent="1" vertex="1">
          <mxGeometry x="20" y="660" width="10" height="10" as="geometry" />
        </mxCell>
        <mxCell id="_7lWE-MWx_kLqU9YCzZ2-40" value="&lt;font style=&quot;font-size: 3px;&quot;&gt;3,18&lt;/font&gt;" style="rounded=0;whiteSpace=wrap;html=1;" parent="1" vertex="1">
          <mxGeometry x="30" y="660" width="10" height="10" as="geometry" />
        </mxCell>
        <mxCell id="_7lWE-MWx_kLqU9YCzZ2-41" value="" style="rounded=0;whiteSpace=wrap;html=1;" parent="1" vertex="1">
          <mxGeometry x="40" y="660" width="10" height="10" as="geometry" />
        </mxCell>
        <mxCell id="_7lWE-MWx_kLqU9YCzZ2-42" value="" style="rounded=0;whiteSpace=wrap;html=1;" parent="1" vertex="1">
          <mxGeometry x="50" y="660" width="10" height="10" as="geometry" />
        </mxCell>
        <mxCell id="_7lWE-MWx_kLqU9YCzZ2-43" value="&lt;font style=&quot;font-size: 3px;&quot;&gt;6,18&lt;/font&gt;" style="rounded=0;whiteSpace=wrap;html=1;" parent="1" vertex="1">
          <mxGeometry x="60" y="660" width="10" height="10" as="geometry" />
        </mxCell>
        <mxCell id="_7lWE-MWx_kLqU9YCzZ2-44" value="" style="rounded=0;whiteSpace=wrap;html=1;" parent="1" vertex="1">
          <mxGeometry x="70" y="660" width="10" height="10" as="geometry" />
        </mxCell>
        <mxCell id="_7lWE-MWx_kLqU9YCzZ2-45" value="" style="rounded=0;whiteSpace=wrap;html=1;" parent="1" vertex="1">
          <mxGeometry x="80" y="660" width="10" height="10" as="geometry" />
        </mxCell>
        <mxCell id="_7lWE-MWx_kLqU9YCzZ2-46" value="" style="rounded=0;whiteSpace=wrap;html=1;" parent="1" vertex="1">
          <mxGeometry x="90" y="660" width="10" height="10" as="geometry" />
        </mxCell>
        <mxCell id="_7lWE-MWx_kLqU9YCzZ2-47" value="" style="rounded=0;whiteSpace=wrap;html=1;" parent="1" vertex="1">
          <mxGeometry y="670" width="10" height="10" as="geometry" />
        </mxCell>
        <mxCell id="_7lWE-MWx_kLqU9YCzZ2-48" value="" style="rounded=0;whiteSpace=wrap;html=1;" parent="1" vertex="1">
          <mxGeometry x="10" y="670" width="10" height="10" as="geometry" />
        </mxCell>
        <mxCell id="_7lWE-MWx_kLqU9YCzZ2-49" value="" style="rounded=0;whiteSpace=wrap;html=1;" parent="1" vertex="1">
          <mxGeometry x="20" y="670" width="10" height="10" as="geometry" />
        </mxCell>
        <mxCell id="_7lWE-MWx_kLqU9YCzZ2-50" value="" style="rounded=0;whiteSpace=wrap;html=1;" parent="1" vertex="1">
          <mxGeometry x="30" y="670" width="10" height="10" as="geometry" />
        </mxCell>
        <mxCell id="_7lWE-MWx_kLqU9YCzZ2-51" value="" style="rounded=0;whiteSpace=wrap;html=1;" parent="1" vertex="1">
          <mxGeometry x="40" y="670" width="10" height="10" as="geometry" />
        </mxCell>
        <mxCell id="_7lWE-MWx_kLqU9YCzZ2-52" value="" style="rounded=0;whiteSpace=wrap;html=1;" parent="1" vertex="1">
          <mxGeometry x="50" y="670" width="10" height="10" as="geometry" />
        </mxCell>
        <mxCell id="_7lWE-MWx_kLqU9YCzZ2-53" value="" style="rounded=0;whiteSpace=wrap;html=1;" parent="1" vertex="1">
          <mxGeometry x="60" y="670" width="10" height="10" as="geometry" />
        </mxCell>
        <mxCell id="_7lWE-MWx_kLqU9YCzZ2-54" value="" style="rounded=0;whiteSpace=wrap;html=1;" parent="1" vertex="1">
          <mxGeometry x="70" y="670" width="10" height="10" as="geometry" />
        </mxCell>
        <mxCell id="_7lWE-MWx_kLqU9YCzZ2-55" value="" style="rounded=0;whiteSpace=wrap;html=1;" parent="1" vertex="1">
          <mxGeometry x="80" y="670" width="10" height="10" as="geometry" />
        </mxCell>
        <mxCell id="_7lWE-MWx_kLqU9YCzZ2-56" value="" style="rounded=0;whiteSpace=wrap;html=1;" parent="1" vertex="1">
          <mxGeometry x="90" y="670" width="10" height="10" as="geometry" />
        </mxCell>
        <mxCell id="_7lWE-MWx_kLqU9YCzZ2-57" value="" style="rounded=0;whiteSpace=wrap;html=1;" parent="1" vertex="1">
          <mxGeometry y="680" width="10" height="10" as="geometry" />
        </mxCell>
        <mxCell id="_7lWE-MWx_kLqU9YCzZ2-58" value="" style="rounded=0;whiteSpace=wrap;html=1;" parent="1" vertex="1">
          <mxGeometry x="10" y="680" width="10" height="10" as="geometry" />
        </mxCell>
        <mxCell id="_7lWE-MWx_kLqU9YCzZ2-59" value="" style="rounded=0;whiteSpace=wrap;html=1;" parent="1" vertex="1">
          <mxGeometry x="20" y="680" width="10" height="10" as="geometry" />
        </mxCell>
        <mxCell id="_7lWE-MWx_kLqU9YCzZ2-60" value="" style="rounded=0;whiteSpace=wrap;html=1;" parent="1" vertex="1">
          <mxGeometry x="30" y="680" width="10" height="10" as="geometry" />
        </mxCell>
        <mxCell id="_7lWE-MWx_kLqU9YCzZ2-61" value="" style="rounded=0;whiteSpace=wrap;html=1;" parent="1" vertex="1">
          <mxGeometry x="40" y="680" width="10" height="10" as="geometry" />
        </mxCell>
        <mxCell id="_7lWE-MWx_kLqU9YCzZ2-62" value="" style="rounded=0;whiteSpace=wrap;html=1;" parent="1" vertex="1">
          <mxGeometry x="50" y="680" width="10" height="10" as="geometry" />
        </mxCell>
        <mxCell id="_7lWE-MWx_kLqU9YCzZ2-63" value="" style="rounded=0;whiteSpace=wrap;html=1;" parent="1" vertex="1">
          <mxGeometry x="60" y="680" width="10" height="10" as="geometry" />
        </mxCell>
        <mxCell id="_7lWE-MWx_kLqU9YCzZ2-64" value="" style="rounded=0;whiteSpace=wrap;html=1;" parent="1" vertex="1">
          <mxGeometry x="70" y="680" width="10" height="10" as="geometry" />
        </mxCell>
        <mxCell id="_7lWE-MWx_kLqU9YCzZ2-65" value="" style="rounded=0;whiteSpace=wrap;html=1;" parent="1" vertex="1">
          <mxGeometry x="80" y="680" width="10" height="10" as="geometry" />
        </mxCell>
        <mxCell id="_7lWE-MWx_kLqU9YCzZ2-66" value="" style="rounded=0;whiteSpace=wrap;html=1;" parent="1" vertex="1">
          <mxGeometry x="90" y="680" width="10" height="10" as="geometry" />
        </mxCell>
        <mxCell id="_7lWE-MWx_kLqU9YCzZ2-67" value="" style="rounded=0;whiteSpace=wrap;html=1;" parent="1" vertex="1">
          <mxGeometry y="690" width="10" height="10" as="geometry" />
        </mxCell>
        <mxCell id="_7lWE-MWx_kLqU9YCzZ2-68" value="" style="rounded=0;whiteSpace=wrap;html=1;" parent="1" vertex="1">
          <mxGeometry x="10" y="690" width="10" height="10" as="geometry" />
        </mxCell>
        <mxCell id="_7lWE-MWx_kLqU9YCzZ2-69" value="" style="rounded=0;whiteSpace=wrap;html=1;" parent="1" vertex="1">
          <mxGeometry x="20" y="690" width="10" height="10" as="geometry" />
        </mxCell>
        <mxCell id="_7lWE-MWx_kLqU9YCzZ2-70" value="" style="rounded=0;whiteSpace=wrap;html=1;" parent="1" vertex="1">
          <mxGeometry x="30" y="690" width="10" height="10" as="geometry" />
        </mxCell>
        <mxCell id="_7lWE-MWx_kLqU9YCzZ2-71" value="" style="rounded=0;whiteSpace=wrap;html=1;" parent="1" vertex="1">
          <mxGeometry x="40" y="690" width="10" height="10" as="geometry" />
        </mxCell>
        <mxCell id="_7lWE-MWx_kLqU9YCzZ2-72" value="" style="rounded=0;whiteSpace=wrap;html=1;" parent="1" vertex="1">
          <mxGeometry x="50" y="690" width="10" height="10" as="geometry" />
        </mxCell>
        <mxCell id="_7lWE-MWx_kLqU9YCzZ2-73" value="" style="rounded=0;whiteSpace=wrap;html=1;" parent="1" vertex="1">
          <mxGeometry x="60" y="690" width="10" height="10" as="geometry" />
        </mxCell>
        <mxCell id="_7lWE-MWx_kLqU9YCzZ2-74" value="" style="rounded=0;whiteSpace=wrap;html=1;" parent="1" vertex="1">
          <mxGeometry x="70" y="690" width="10" height="10" as="geometry" />
        </mxCell>
        <mxCell id="_7lWE-MWx_kLqU9YCzZ2-75" value="" style="rounded=0;whiteSpace=wrap;html=1;" parent="1" vertex="1">
          <mxGeometry x="80" y="690" width="10" height="10" as="geometry" />
        </mxCell>
        <mxCell id="_7lWE-MWx_kLqU9YCzZ2-76" value="" style="rounded=0;whiteSpace=wrap;html=1;" parent="1" vertex="1">
          <mxGeometry x="90" y="690" width="10" height="10" as="geometry" />
        </mxCell>
        <mxCell id="_7lWE-MWx_kLqU9YCzZ2-77" value="" style="rounded=0;whiteSpace=wrap;html=1;" parent="1" vertex="1">
          <mxGeometry y="700" width="10" height="10" as="geometry" />
        </mxCell>
        <mxCell id="_7lWE-MWx_kLqU9YCzZ2-78" value="" style="rounded=0;whiteSpace=wrap;html=1;" parent="1" vertex="1">
          <mxGeometry x="10" y="700" width="10" height="10" as="geometry" />
        </mxCell>
        <mxCell id="_7lWE-MWx_kLqU9YCzZ2-79" value="" style="rounded=0;whiteSpace=wrap;html=1;" parent="1" vertex="1">
          <mxGeometry x="20" y="700" width="10" height="10" as="geometry" />
        </mxCell>
        <mxCell id="_7lWE-MWx_kLqU9YCzZ2-80" value="" style="rounded=0;whiteSpace=wrap;html=1;" parent="1" vertex="1">
          <mxGeometry x="30" y="700" width="10" height="10" as="geometry" />
        </mxCell>
        <mxCell id="_7lWE-MWx_kLqU9YCzZ2-81" value="" style="rounded=0;whiteSpace=wrap;html=1;" parent="1" vertex="1">
          <mxGeometry x="40" y="700" width="10" height="10" as="geometry" />
        </mxCell>
        <mxCell id="_7lWE-MWx_kLqU9YCzZ2-82" value="" style="rounded=0;whiteSpace=wrap;html=1;" parent="1" vertex="1">
          <mxGeometry x="50" y="700" width="10" height="10" as="geometry" />
        </mxCell>
        <mxCell id="_7lWE-MWx_kLqU9YCzZ2-83" value="" style="rounded=0;whiteSpace=wrap;html=1;" parent="1" vertex="1">
          <mxGeometry x="60" y="700" width="10" height="10" as="geometry" />
        </mxCell>
        <mxCell id="_7lWE-MWx_kLqU9YCzZ2-84" value="" style="rounded=0;whiteSpace=wrap;html=1;" parent="1" vertex="1">
          <mxGeometry x="70" y="700" width="10" height="10" as="geometry" />
        </mxCell>
        <mxCell id="_7lWE-MWx_kLqU9YCzZ2-85" value="" style="rounded=0;whiteSpace=wrap;html=1;" parent="1" vertex="1">
          <mxGeometry x="80" y="700" width="10" height="10" as="geometry" />
        </mxCell>
        <mxCell id="_7lWE-MWx_kLqU9YCzZ2-86" value="" style="rounded=0;whiteSpace=wrap;html=1;" parent="1" vertex="1">
          <mxGeometry x="90" y="700" width="10" height="10" as="geometry" />
        </mxCell>
        <mxCell id="_7lWE-MWx_kLqU9YCzZ2-87" value="" style="rounded=0;whiteSpace=wrap;html=1;" parent="1" vertex="1">
          <mxGeometry y="710" width="10" height="10" as="geometry" />
        </mxCell>
        <mxCell id="_7lWE-MWx_kLqU9YCzZ2-88" value="" style="rounded=0;whiteSpace=wrap;html=1;" parent="1" vertex="1">
          <mxGeometry x="10" y="710" width="10" height="10" as="geometry" />
        </mxCell>
        <mxCell id="_7lWE-MWx_kLqU9YCzZ2-89" value="" style="rounded=0;whiteSpace=wrap;html=1;" parent="1" vertex="1">
          <mxGeometry x="20" y="710" width="10" height="10" as="geometry" />
        </mxCell>
        <mxCell id="_7lWE-MWx_kLqU9YCzZ2-90" value="" style="rounded=0;whiteSpace=wrap;html=1;" parent="1" vertex="1">
          <mxGeometry x="30" y="710" width="10" height="10" as="geometry" />
        </mxCell>
        <mxCell id="_7lWE-MWx_kLqU9YCzZ2-91" value="" style="rounded=0;whiteSpace=wrap;html=1;" parent="1" vertex="1">
          <mxGeometry x="40" y="710" width="10" height="10" as="geometry" />
        </mxCell>
        <mxCell id="_7lWE-MWx_kLqU9YCzZ2-92" value="" style="rounded=0;whiteSpace=wrap;html=1;" parent="1" vertex="1">
          <mxGeometry x="50" y="710" width="10" height="10" as="geometry" />
        </mxCell>
        <mxCell id="_7lWE-MWx_kLqU9YCzZ2-93" value="" style="rounded=0;whiteSpace=wrap;html=1;" parent="1" vertex="1">
          <mxGeometry x="60" y="710" width="10" height="10" as="geometry" />
        </mxCell>
        <mxCell id="_7lWE-MWx_kLqU9YCzZ2-94" value="" style="rounded=0;whiteSpace=wrap;html=1;" parent="1" vertex="1">
          <mxGeometry x="70" y="710" width="10" height="10" as="geometry" />
        </mxCell>
        <mxCell id="_7lWE-MWx_kLqU9YCzZ2-95" value="" style="rounded=0;whiteSpace=wrap;html=1;" parent="1" vertex="1">
          <mxGeometry x="80" y="710" width="10" height="10" as="geometry" />
        </mxCell>
        <mxCell id="_7lWE-MWx_kLqU9YCzZ2-96" value="" style="rounded=0;whiteSpace=wrap;html=1;" parent="1" vertex="1">
          <mxGeometry x="90" y="710" width="10" height="10" as="geometry" />
        </mxCell>
        <mxCell id="_7lWE-MWx_kLqU9YCzZ2-97" value="" style="rounded=0;whiteSpace=wrap;html=1;" parent="1" vertex="1">
          <mxGeometry y="720" width="10" height="10" as="geometry" />
        </mxCell>
        <mxCell id="_7lWE-MWx_kLqU9YCzZ2-98" value="" style="rounded=0;whiteSpace=wrap;html=1;" parent="1" vertex="1">
          <mxGeometry x="10" y="720" width="10" height="10" as="geometry" />
        </mxCell>
        <mxCell id="_7lWE-MWx_kLqU9YCzZ2-99" value="" style="rounded=0;whiteSpace=wrap;html=1;" parent="1" vertex="1">
          <mxGeometry x="20" y="720" width="10" height="10" as="geometry" />
        </mxCell>
        <mxCell id="_7lWE-MWx_kLqU9YCzZ2-100" value="" style="rounded=0;whiteSpace=wrap;html=1;" parent="1" vertex="1">
          <mxGeometry x="30" y="720" width="10" height="10" as="geometry" />
        </mxCell>
        <mxCell id="_7lWE-MWx_kLqU9YCzZ2-101" value="" style="rounded=0;whiteSpace=wrap;html=1;" parent="1" vertex="1">
          <mxGeometry x="40" y="720" width="10" height="10" as="geometry" />
        </mxCell>
        <mxCell id="_7lWE-MWx_kLqU9YCzZ2-102" value="" style="rounded=0;whiteSpace=wrap;html=1;" parent="1" vertex="1">
          <mxGeometry x="50" y="720" width="10" height="10" as="geometry" />
        </mxCell>
        <mxCell id="_7lWE-MWx_kLqU9YCzZ2-103" value="" style="rounded=0;whiteSpace=wrap;html=1;" parent="1" vertex="1">
          <mxGeometry x="60" y="720" width="10" height="10" as="geometry" />
        </mxCell>
        <mxCell id="_7lWE-MWx_kLqU9YCzZ2-104" value="" style="rounded=0;whiteSpace=wrap;html=1;" parent="1" vertex="1">
          <mxGeometry x="70" y="720" width="10" height="10" as="geometry" />
        </mxCell>
        <mxCell id="_7lWE-MWx_kLqU9YCzZ2-105" value="" style="rounded=0;whiteSpace=wrap;html=1;" parent="1" vertex="1">
          <mxGeometry x="80" y="720" width="10" height="10" as="geometry" />
        </mxCell>
        <mxCell id="_7lWE-MWx_kLqU9YCzZ2-106" value="" style="rounded=0;whiteSpace=wrap;html=1;" parent="1" vertex="1">
          <mxGeometry x="90" y="720" width="10" height="10" as="geometry" />
        </mxCell>
        <mxCell id="_7lWE-MWx_kLqU9YCzZ2-107" value="" style="rounded=0;whiteSpace=wrap;html=1;" parent="1" vertex="1">
          <mxGeometry y="730" width="10" height="10" as="geometry" />
        </mxCell>
        <mxCell id="_7lWE-MWx_kLqU9YCzZ2-108" value="" style="rounded=0;whiteSpace=wrap;html=1;" parent="1" vertex="1">
          <mxGeometry x="10" y="730" width="10" height="10" as="geometry" />
        </mxCell>
        <mxCell id="_7lWE-MWx_kLqU9YCzZ2-109" value="" style="rounded=0;whiteSpace=wrap;html=1;" parent="1" vertex="1">
          <mxGeometry x="20" y="730" width="10" height="10" as="geometry" />
        </mxCell>
        <mxCell id="_7lWE-MWx_kLqU9YCzZ2-110" value="" style="rounded=0;whiteSpace=wrap;html=1;" parent="1" vertex="1">
          <mxGeometry x="30" y="730" width="10" height="10" as="geometry" />
        </mxCell>
        <mxCell id="_7lWE-MWx_kLqU9YCzZ2-111" value="" style="rounded=0;whiteSpace=wrap;html=1;" parent="1" vertex="1">
          <mxGeometry x="40" y="730" width="10" height="10" as="geometry" />
        </mxCell>
        <mxCell id="_7lWE-MWx_kLqU9YCzZ2-112" value="" style="rounded=0;whiteSpace=wrap;html=1;" parent="1" vertex="1">
          <mxGeometry x="50" y="730" width="10" height="10" as="geometry" />
        </mxCell>
        <mxCell id="_7lWE-MWx_kLqU9YCzZ2-113" value="" style="rounded=0;whiteSpace=wrap;html=1;" parent="1" vertex="1">
          <mxGeometry x="60" y="730" width="10" height="10" as="geometry" />
        </mxCell>
        <mxCell id="_7lWE-MWx_kLqU9YCzZ2-114" value="" style="rounded=0;whiteSpace=wrap;html=1;" parent="1" vertex="1">
          <mxGeometry x="70" y="730" width="10" height="10" as="geometry" />
        </mxCell>
        <mxCell id="_7lWE-MWx_kLqU9YCzZ2-115" value="" style="rounded=0;whiteSpace=wrap;html=1;" parent="1" vertex="1">
          <mxGeometry x="80" y="730" width="10" height="10" as="geometry" />
        </mxCell>
        <mxCell id="_7lWE-MWx_kLqU9YCzZ2-116" value="" style="rounded=0;whiteSpace=wrap;html=1;" parent="1" vertex="1">
          <mxGeometry x="90" y="730" width="10" height="10" as="geometry" />
        </mxCell>
        <mxCell id="_7lWE-MWx_kLqU9YCzZ2-117" value="" style="rounded=0;whiteSpace=wrap;html=1;" parent="1" vertex="1">
          <mxGeometry y="740" width="10" height="10" as="geometry" />
        </mxCell>
        <mxCell id="_7lWE-MWx_kLqU9YCzZ2-118" value="" style="rounded=0;whiteSpace=wrap;html=1;" parent="1" vertex="1">
          <mxGeometry x="10" y="740" width="10" height="10" as="geometry" />
        </mxCell>
        <mxCell id="_7lWE-MWx_kLqU9YCzZ2-119" value="" style="rounded=0;whiteSpace=wrap;html=1;" parent="1" vertex="1">
          <mxGeometry x="20" y="740" width="10" height="10" as="geometry" />
        </mxCell>
        <mxCell id="_7lWE-MWx_kLqU9YCzZ2-120" value="" style="rounded=0;whiteSpace=wrap;html=1;" parent="1" vertex="1">
          <mxGeometry x="30" y="740" width="10" height="10" as="geometry" />
        </mxCell>
        <mxCell id="_7lWE-MWx_kLqU9YCzZ2-121" value="" style="rounded=0;whiteSpace=wrap;html=1;" parent="1" vertex="1">
          <mxGeometry x="40" y="740" width="10" height="10" as="geometry" />
        </mxCell>
        <mxCell id="_7lWE-MWx_kLqU9YCzZ2-122" value="" style="rounded=0;whiteSpace=wrap;html=1;" parent="1" vertex="1">
          <mxGeometry x="50" y="740" width="10" height="10" as="geometry" />
        </mxCell>
        <mxCell id="_7lWE-MWx_kLqU9YCzZ2-123" value="" style="rounded=0;whiteSpace=wrap;html=1;" parent="1" vertex="1">
          <mxGeometry x="60" y="740" width="10" height="10" as="geometry" />
        </mxCell>
        <mxCell id="_7lWE-MWx_kLqU9YCzZ2-124" value="" style="rounded=0;whiteSpace=wrap;html=1;" parent="1" vertex="1">
          <mxGeometry x="70" y="740" width="10" height="10" as="geometry" />
        </mxCell>
        <mxCell id="_7lWE-MWx_kLqU9YCzZ2-125" value="" style="rounded=0;whiteSpace=wrap;html=1;" parent="1" vertex="1">
          <mxGeometry x="80" y="740" width="10" height="10" as="geometry" />
        </mxCell>
        <mxCell id="_7lWE-MWx_kLqU9YCzZ2-126" value="" style="rounded=0;whiteSpace=wrap;html=1;" parent="1" vertex="1">
          <mxGeometry x="90" y="740" width="10" height="10" as="geometry" />
        </mxCell>
        <mxCell id="_7lWE-MWx_kLqU9YCzZ2-227" value="" style="rounded=0;whiteSpace=wrap;html=1;" parent="1" vertex="1">
          <mxGeometry y="750" width="10" height="10" as="geometry" />
        </mxCell>
        <mxCell id="_7lWE-MWx_kLqU9YCzZ2-228" value="" style="rounded=0;whiteSpace=wrap;html=1;" parent="1" vertex="1">
          <mxGeometry x="10" y="750" width="10" height="10" as="geometry" />
        </mxCell>
        <mxCell id="_7lWE-MWx_kLqU9YCzZ2-229" value="" style="rounded=0;whiteSpace=wrap;html=1;" parent="1" vertex="1">
          <mxGeometry x="20" y="750" width="10" height="10" as="geometry" />
        </mxCell>
        <mxCell id="_7lWE-MWx_kLqU9YCzZ2-230" value="" style="rounded=0;whiteSpace=wrap;html=1;" parent="1" vertex="1">
          <mxGeometry x="30" y="750" width="10" height="10" as="geometry" />
        </mxCell>
        <mxCell id="_7lWE-MWx_kLqU9YCzZ2-231" value="" style="rounded=0;whiteSpace=wrap;html=1;" parent="1" vertex="1">
          <mxGeometry x="40" y="750" width="10" height="10" as="geometry" />
        </mxCell>
        <mxCell id="_7lWE-MWx_kLqU9YCzZ2-232" value="" style="rounded=0;whiteSpace=wrap;html=1;" parent="1" vertex="1">
          <mxGeometry x="50" y="750" width="10" height="10" as="geometry" />
        </mxCell>
        <mxCell id="_7lWE-MWx_kLqU9YCzZ2-233" value="" style="rounded=0;whiteSpace=wrap;html=1;" parent="1" vertex="1">
          <mxGeometry x="60" y="750" width="10" height="10" as="geometry" />
        </mxCell>
        <mxCell id="_7lWE-MWx_kLqU9YCzZ2-234" value="" style="rounded=0;whiteSpace=wrap;html=1;" parent="1" vertex="1">
          <mxGeometry x="70" y="750" width="10" height="10" as="geometry" />
        </mxCell>
        <mxCell id="_7lWE-MWx_kLqU9YCzZ2-235" value="" style="rounded=0;whiteSpace=wrap;html=1;" parent="1" vertex="1">
          <mxGeometry x="80" y="750" width="10" height="10" as="geometry" />
        </mxCell>
        <mxCell id="_7lWE-MWx_kLqU9YCzZ2-236" value="" style="rounded=0;whiteSpace=wrap;html=1;" parent="1" vertex="1">
          <mxGeometry x="90" y="750" width="10" height="10" as="geometry" />
        </mxCell>
        <mxCell id="_7lWE-MWx_kLqU9YCzZ2-237" value="" style="rounded=0;whiteSpace=wrap;html=1;" parent="1" vertex="1">
          <mxGeometry y="760" width="10" height="10" as="geometry" />
        </mxCell>
        <mxCell id="_7lWE-MWx_kLqU9YCzZ2-238" value="" style="rounded=0;whiteSpace=wrap;html=1;" parent="1" vertex="1">
          <mxGeometry x="10" y="760" width="10" height="10" as="geometry" />
        </mxCell>
        <mxCell id="_7lWE-MWx_kLqU9YCzZ2-239" value="" style="rounded=0;whiteSpace=wrap;html=1;" parent="1" vertex="1">
          <mxGeometry x="20" y="760" width="10" height="10" as="geometry" />
        </mxCell>
        <mxCell id="_7lWE-MWx_kLqU9YCzZ2-240" value="" style="rounded=0;whiteSpace=wrap;html=1;" parent="1" vertex="1">
          <mxGeometry x="30" y="760" width="10" height="10" as="geometry" />
        </mxCell>
        <mxCell id="_7lWE-MWx_kLqU9YCzZ2-241" value="" style="rounded=0;whiteSpace=wrap;html=1;" parent="1" vertex="1">
          <mxGeometry x="40" y="760" width="10" height="10" as="geometry" />
        </mxCell>
        <mxCell id="_7lWE-MWx_kLqU9YCzZ2-242" value="" style="rounded=0;whiteSpace=wrap;html=1;" parent="1" vertex="1">
          <mxGeometry x="50" y="760" width="10" height="10" as="geometry" />
        </mxCell>
        <mxCell id="_7lWE-MWx_kLqU9YCzZ2-243" value="" style="rounded=0;whiteSpace=wrap;html=1;" parent="1" vertex="1">
          <mxGeometry x="60" y="760" width="10" height="10" as="geometry" />
        </mxCell>
        <mxCell id="_7lWE-MWx_kLqU9YCzZ2-244" value="" style="rounded=0;whiteSpace=wrap;html=1;" parent="1" vertex="1">
          <mxGeometry x="70" y="760" width="10" height="10" as="geometry" />
        </mxCell>
        <mxCell id="_7lWE-MWx_kLqU9YCzZ2-245" value="" style="rounded=0;whiteSpace=wrap;html=1;" parent="1" vertex="1">
          <mxGeometry x="80" y="760" width="10" height="10" as="geometry" />
        </mxCell>
        <mxCell id="_7lWE-MWx_kLqU9YCzZ2-246" value="" style="rounded=0;whiteSpace=wrap;html=1;" parent="1" vertex="1">
          <mxGeometry x="90" y="760" width="10" height="10" as="geometry" />
        </mxCell>
        <mxCell id="_7lWE-MWx_kLqU9YCzZ2-247" value="" style="rounded=0;whiteSpace=wrap;html=1;" parent="1" vertex="1">
          <mxGeometry y="770" width="10" height="10" as="geometry" />
        </mxCell>
        <mxCell id="_7lWE-MWx_kLqU9YCzZ2-248" value="" style="rounded=0;whiteSpace=wrap;html=1;" parent="1" vertex="1">
          <mxGeometry x="10" y="770" width="10" height="10" as="geometry" />
        </mxCell>
        <mxCell id="_7lWE-MWx_kLqU9YCzZ2-249" value="" style="rounded=0;whiteSpace=wrap;html=1;" parent="1" vertex="1">
          <mxGeometry x="20" y="770" width="10" height="10" as="geometry" />
        </mxCell>
        <mxCell id="_7lWE-MWx_kLqU9YCzZ2-250" value="" style="rounded=0;whiteSpace=wrap;html=1;" parent="1" vertex="1">
          <mxGeometry x="30" y="770" width="10" height="10" as="geometry" />
        </mxCell>
        <mxCell id="_7lWE-MWx_kLqU9YCzZ2-251" value="" style="rounded=0;whiteSpace=wrap;html=1;" parent="1" vertex="1">
          <mxGeometry x="40" y="770" width="10" height="10" as="geometry" />
        </mxCell>
        <mxCell id="_7lWE-MWx_kLqU9YCzZ2-252" value="" style="rounded=0;whiteSpace=wrap;html=1;" parent="1" vertex="1">
          <mxGeometry x="50" y="770" width="10" height="10" as="geometry" />
        </mxCell>
        <mxCell id="_7lWE-MWx_kLqU9YCzZ2-253" value="" style="rounded=0;whiteSpace=wrap;html=1;" parent="1" vertex="1">
          <mxGeometry x="60" y="770" width="10" height="10" as="geometry" />
        </mxCell>
        <mxCell id="_7lWE-MWx_kLqU9YCzZ2-254" value="" style="rounded=0;whiteSpace=wrap;html=1;" parent="1" vertex="1">
          <mxGeometry x="70" y="770" width="10" height="10" as="geometry" />
        </mxCell>
        <mxCell id="_7lWE-MWx_kLqU9YCzZ2-255" value="" style="rounded=0;whiteSpace=wrap;html=1;" parent="1" vertex="1">
          <mxGeometry x="80" y="770" width="10" height="10" as="geometry" />
        </mxCell>
        <mxCell id="_7lWE-MWx_kLqU9YCzZ2-256" value="" style="rounded=0;whiteSpace=wrap;html=1;" parent="1" vertex="1">
          <mxGeometry x="90" y="770" width="10" height="10" as="geometry" />
        </mxCell>
        <mxCell id="_7lWE-MWx_kLqU9YCzZ2-257" value="" style="rounded=0;whiteSpace=wrap;html=1;" parent="1" vertex="1">
          <mxGeometry y="780" width="10" height="10" as="geometry" />
        </mxCell>
        <mxCell id="_7lWE-MWx_kLqU9YCzZ2-258" value="" style="rounded=0;whiteSpace=wrap;html=1;" parent="1" vertex="1">
          <mxGeometry x="10" y="780" width="10" height="10" as="geometry" />
        </mxCell>
        <mxCell id="_7lWE-MWx_kLqU9YCzZ2-259" value="" style="rounded=0;whiteSpace=wrap;html=1;" parent="1" vertex="1">
          <mxGeometry x="20" y="780" width="10" height="10" as="geometry" />
        </mxCell>
        <mxCell id="_7lWE-MWx_kLqU9YCzZ2-260" value="" style="rounded=0;whiteSpace=wrap;html=1;" parent="1" vertex="1">
          <mxGeometry x="30" y="780" width="10" height="10" as="geometry" />
        </mxCell>
        <mxCell id="_7lWE-MWx_kLqU9YCzZ2-261" value="" style="rounded=0;whiteSpace=wrap;html=1;" parent="1" vertex="1">
          <mxGeometry x="40" y="780" width="10" height="10" as="geometry" />
        </mxCell>
        <mxCell id="_7lWE-MWx_kLqU9YCzZ2-262" value="" style="rounded=0;whiteSpace=wrap;html=1;" parent="1" vertex="1">
          <mxGeometry x="50" y="780" width="10" height="10" as="geometry" />
        </mxCell>
        <mxCell id="_7lWE-MWx_kLqU9YCzZ2-263" value="" style="rounded=0;whiteSpace=wrap;html=1;" parent="1" vertex="1">
          <mxGeometry x="60" y="780" width="10" height="10" as="geometry" />
        </mxCell>
        <mxCell id="_7lWE-MWx_kLqU9YCzZ2-264" value="" style="rounded=0;whiteSpace=wrap;html=1;" parent="1" vertex="1">
          <mxGeometry x="70" y="780" width="10" height="10" as="geometry" />
        </mxCell>
        <mxCell id="_7lWE-MWx_kLqU9YCzZ2-265" value="" style="rounded=0;whiteSpace=wrap;html=1;" parent="1" vertex="1">
          <mxGeometry x="80" y="780" width="10" height="10" as="geometry" />
        </mxCell>
        <mxCell id="_7lWE-MWx_kLqU9YCzZ2-266" value="" style="rounded=0;whiteSpace=wrap;html=1;" parent="1" vertex="1">
          <mxGeometry x="90" y="780" width="10" height="10" as="geometry" />
        </mxCell>
        <mxCell id="_7lWE-MWx_kLqU9YCzZ2-267" value="" style="rounded=0;whiteSpace=wrap;html=1;" parent="1" vertex="1">
          <mxGeometry y="790" width="10" height="10" as="geometry" />
        </mxCell>
        <mxCell id="_7lWE-MWx_kLqU9YCzZ2-268" value="" style="rounded=0;whiteSpace=wrap;html=1;" parent="1" vertex="1">
          <mxGeometry x="10" y="790" width="10" height="10" as="geometry" />
        </mxCell>
        <mxCell id="_7lWE-MWx_kLqU9YCzZ2-269" value="" style="rounded=0;whiteSpace=wrap;html=1;" parent="1" vertex="1">
          <mxGeometry x="20" y="790" width="10" height="10" as="geometry" />
        </mxCell>
        <mxCell id="_7lWE-MWx_kLqU9YCzZ2-270" value="" style="rounded=0;whiteSpace=wrap;html=1;" parent="1" vertex="1">
          <mxGeometry x="30" y="790" width="10" height="10" as="geometry" />
        </mxCell>
        <mxCell id="_7lWE-MWx_kLqU9YCzZ2-271" value="" style="rounded=0;whiteSpace=wrap;html=1;" parent="1" vertex="1">
          <mxGeometry x="40" y="790" width="10" height="10" as="geometry" />
        </mxCell>
        <mxCell id="_7lWE-MWx_kLqU9YCzZ2-272" value="" style="rounded=0;whiteSpace=wrap;html=1;" parent="1" vertex="1">
          <mxGeometry x="50" y="790" width="10" height="10" as="geometry" />
        </mxCell>
        <mxCell id="_7lWE-MWx_kLqU9YCzZ2-273" value="" style="rounded=0;whiteSpace=wrap;html=1;" parent="1" vertex="1">
          <mxGeometry x="60" y="790" width="10" height="10" as="geometry" />
        </mxCell>
        <mxCell id="_7lWE-MWx_kLqU9YCzZ2-274" value="" style="rounded=0;whiteSpace=wrap;html=1;" parent="1" vertex="1">
          <mxGeometry x="70" y="790" width="10" height="10" as="geometry" />
        </mxCell>
        <mxCell id="_7lWE-MWx_kLqU9YCzZ2-275" value="" style="rounded=0;whiteSpace=wrap;html=1;" parent="1" vertex="1">
          <mxGeometry x="80" y="790" width="10" height="10" as="geometry" />
        </mxCell>
        <mxCell id="_7lWE-MWx_kLqU9YCzZ2-276" value="" style="rounded=0;whiteSpace=wrap;html=1;" parent="1" vertex="1">
          <mxGeometry x="90" y="790" width="10" height="10" as="geometry" />
        </mxCell>
        <mxCell id="_7lWE-MWx_kLqU9YCzZ2-277" value="" style="rounded=0;whiteSpace=wrap;html=1;" parent="1" vertex="1">
          <mxGeometry y="800" width="10" height="10" as="geometry" />
        </mxCell>
        <mxCell id="_7lWE-MWx_kLqU9YCzZ2-278" value="" style="rounded=0;whiteSpace=wrap;html=1;" parent="1" vertex="1">
          <mxGeometry x="10" y="800" width="10" height="10" as="geometry" />
        </mxCell>
        <mxCell id="_7lWE-MWx_kLqU9YCzZ2-279" value="" style="rounded=0;whiteSpace=wrap;html=1;" parent="1" vertex="1">
          <mxGeometry x="20" y="800" width="10" height="10" as="geometry" />
        </mxCell>
        <mxCell id="_7lWE-MWx_kLqU9YCzZ2-280" value="" style="rounded=0;whiteSpace=wrap;html=1;" parent="1" vertex="1">
          <mxGeometry x="30" y="800" width="10" height="10" as="geometry" />
        </mxCell>
        <mxCell id="_7lWE-MWx_kLqU9YCzZ2-281" value="" style="rounded=0;whiteSpace=wrap;html=1;" parent="1" vertex="1">
          <mxGeometry x="40" y="800" width="10" height="10" as="geometry" />
        </mxCell>
        <mxCell id="_7lWE-MWx_kLqU9YCzZ2-282" value="" style="rounded=0;whiteSpace=wrap;html=1;" parent="1" vertex="1">
          <mxGeometry x="50" y="800" width="10" height="10" as="geometry" />
        </mxCell>
        <mxCell id="_7lWE-MWx_kLqU9YCzZ2-283" value="" style="rounded=0;whiteSpace=wrap;html=1;" parent="1" vertex="1">
          <mxGeometry x="60" y="800" width="10" height="10" as="geometry" />
        </mxCell>
        <mxCell id="_7lWE-MWx_kLqU9YCzZ2-284" value="" style="rounded=0;whiteSpace=wrap;html=1;" parent="1" vertex="1">
          <mxGeometry x="70" y="800" width="10" height="10" as="geometry" />
        </mxCell>
        <mxCell id="_7lWE-MWx_kLqU9YCzZ2-285" value="" style="rounded=0;whiteSpace=wrap;html=1;" parent="1" vertex="1">
          <mxGeometry x="80" y="800" width="10" height="10" as="geometry" />
        </mxCell>
        <mxCell id="_7lWE-MWx_kLqU9YCzZ2-286" value="" style="rounded=0;whiteSpace=wrap;html=1;" parent="1" vertex="1">
          <mxGeometry x="90" y="800" width="10" height="10" as="geometry" />
        </mxCell>
        <mxCell id="_7lWE-MWx_kLqU9YCzZ2-287" value="" style="rounded=0;whiteSpace=wrap;html=1;" parent="1" vertex="1">
          <mxGeometry y="810" width="10" height="10" as="geometry" />
        </mxCell>
        <mxCell id="_7lWE-MWx_kLqU9YCzZ2-288" value="" style="rounded=0;whiteSpace=wrap;html=1;" parent="1" vertex="1">
          <mxGeometry x="10" y="810" width="10" height="10" as="geometry" />
        </mxCell>
        <mxCell id="_7lWE-MWx_kLqU9YCzZ2-289" value="" style="rounded=0;whiteSpace=wrap;html=1;" parent="1" vertex="1">
          <mxGeometry x="20" y="810" width="10" height="10" as="geometry" />
        </mxCell>
        <mxCell id="_7lWE-MWx_kLqU9YCzZ2-290" value="" style="rounded=0;whiteSpace=wrap;html=1;" parent="1" vertex="1">
          <mxGeometry x="30" y="810" width="10" height="10" as="geometry" />
        </mxCell>
        <mxCell id="_7lWE-MWx_kLqU9YCzZ2-291" value="" style="rounded=0;whiteSpace=wrap;html=1;" parent="1" vertex="1">
          <mxGeometry x="40" y="810" width="10" height="10" as="geometry" />
        </mxCell>
        <mxCell id="_7lWE-MWx_kLqU9YCzZ2-292" value="" style="rounded=0;whiteSpace=wrap;html=1;" parent="1" vertex="1">
          <mxGeometry x="50" y="810" width="10" height="10" as="geometry" />
        </mxCell>
        <mxCell id="_7lWE-MWx_kLqU9YCzZ2-293" value="" style="rounded=0;whiteSpace=wrap;html=1;" parent="1" vertex="1">
          <mxGeometry x="60" y="810" width="10" height="10" as="geometry" />
        </mxCell>
        <mxCell id="_7lWE-MWx_kLqU9YCzZ2-294" value="" style="rounded=0;whiteSpace=wrap;html=1;" parent="1" vertex="1">
          <mxGeometry x="70" y="810" width="10" height="10" as="geometry" />
        </mxCell>
        <mxCell id="_7lWE-MWx_kLqU9YCzZ2-295" value="" style="rounded=0;whiteSpace=wrap;html=1;" parent="1" vertex="1">
          <mxGeometry x="80" y="810" width="10" height="10" as="geometry" />
        </mxCell>
        <mxCell id="_7lWE-MWx_kLqU9YCzZ2-296" value="" style="rounded=0;whiteSpace=wrap;html=1;" parent="1" vertex="1">
          <mxGeometry x="90" y="810" width="10" height="10" as="geometry" />
        </mxCell>
        <mxCell id="_7lWE-MWx_kLqU9YCzZ2-297" value="&lt;font style=&quot;font-size: 3px;&quot;&gt;0,2&lt;/font&gt;" style="rounded=0;whiteSpace=wrap;html=1;" parent="1" vertex="1">
          <mxGeometry y="820" width="10" height="10" as="geometry" />
        </mxCell>
        <mxCell id="_7lWE-MWx_kLqU9YCzZ2-298" value="" style="rounded=0;whiteSpace=wrap;html=1;" parent="1" vertex="1">
          <mxGeometry x="10" y="820" width="10" height="10" as="geometry" />
        </mxCell>
        <mxCell id="_7lWE-MWx_kLqU9YCzZ2-299" value="" style="rounded=0;whiteSpace=wrap;html=1;" parent="1" vertex="1">
          <mxGeometry x="20" y="820" width="10" height="10" as="geometry" />
        </mxCell>
        <mxCell id="_7lWE-MWx_kLqU9YCzZ2-300" value="" style="rounded=0;whiteSpace=wrap;html=1;" parent="1" vertex="1">
          <mxGeometry x="30" y="820" width="10" height="10" as="geometry" />
        </mxCell>
        <mxCell id="_7lWE-MWx_kLqU9YCzZ2-301" value="" style="rounded=0;whiteSpace=wrap;html=1;" parent="1" vertex="1">
          <mxGeometry x="40" y="820" width="10" height="10" as="geometry" />
        </mxCell>
        <mxCell id="_7lWE-MWx_kLqU9YCzZ2-302" value="" style="rounded=0;whiteSpace=wrap;html=1;" parent="1" vertex="1">
          <mxGeometry x="50" y="820" width="10" height="10" as="geometry" />
        </mxCell>
        <mxCell id="_7lWE-MWx_kLqU9YCzZ2-303" value="" style="rounded=0;whiteSpace=wrap;html=1;" parent="1" vertex="1">
          <mxGeometry x="60" y="820" width="10" height="10" as="geometry" />
        </mxCell>
        <mxCell id="_7lWE-MWx_kLqU9YCzZ2-304" value="" style="rounded=0;whiteSpace=wrap;html=1;" parent="1" vertex="1">
          <mxGeometry x="70" y="820" width="10" height="10" as="geometry" />
        </mxCell>
        <mxCell id="_7lWE-MWx_kLqU9YCzZ2-305" value="" style="rounded=0;whiteSpace=wrap;html=1;" parent="1" vertex="1">
          <mxGeometry x="80" y="820" width="10" height="10" as="geometry" />
        </mxCell>
        <mxCell id="_7lWE-MWx_kLqU9YCzZ2-306" value="" style="rounded=0;whiteSpace=wrap;html=1;" parent="1" vertex="1">
          <mxGeometry x="90" y="820" width="10" height="10" as="geometry" />
        </mxCell>
        <mxCell id="_7lWE-MWx_kLqU9YCzZ2-307" value="&lt;font style=&quot;font-size: 3px;&quot;&gt;0,1&lt;/font&gt;" style="rounded=0;whiteSpace=wrap;html=1;" parent="1" vertex="1">
          <mxGeometry y="830" width="10" height="10" as="geometry" />
        </mxCell>
        <mxCell id="_7lWE-MWx_kLqU9YCzZ2-308" value="" style="rounded=0;whiteSpace=wrap;html=1;" parent="1" vertex="1">
          <mxGeometry x="10" y="830" width="10" height="10" as="geometry" />
        </mxCell>
        <mxCell id="_7lWE-MWx_kLqU9YCzZ2-309" value="" style="rounded=0;whiteSpace=wrap;html=1;" parent="1" vertex="1">
          <mxGeometry x="20" y="830" width="10" height="10" as="geometry" />
        </mxCell>
        <mxCell id="_7lWE-MWx_kLqU9YCzZ2-310" value="" style="rounded=0;whiteSpace=wrap;html=1;" parent="1" vertex="1">
          <mxGeometry x="30" y="830" width="10" height="10" as="geometry" />
        </mxCell>
        <mxCell id="_7lWE-MWx_kLqU9YCzZ2-311" value="" style="rounded=0;whiteSpace=wrap;html=1;" parent="1" vertex="1">
          <mxGeometry x="40" y="830" width="10" height="10" as="geometry" />
        </mxCell>
        <mxCell id="_7lWE-MWx_kLqU9YCzZ2-312" value="" style="rounded=0;whiteSpace=wrap;html=1;" parent="1" vertex="1">
          <mxGeometry x="50" y="830" width="10" height="10" as="geometry" />
        </mxCell>
        <mxCell id="_7lWE-MWx_kLqU9YCzZ2-313" value="" style="rounded=0;whiteSpace=wrap;html=1;" parent="1" vertex="1">
          <mxGeometry x="60" y="830" width="10" height="10" as="geometry" />
        </mxCell>
        <mxCell id="_7lWE-MWx_kLqU9YCzZ2-314" value="" style="rounded=0;whiteSpace=wrap;html=1;" parent="1" vertex="1">
          <mxGeometry x="70" y="830" width="10" height="10" as="geometry" />
        </mxCell>
        <mxCell id="_7lWE-MWx_kLqU9YCzZ2-315" value="" style="rounded=0;whiteSpace=wrap;html=1;" parent="1" vertex="1">
          <mxGeometry x="80" y="830" width="10" height="10" as="geometry" />
        </mxCell>
        <mxCell id="_7lWE-MWx_kLqU9YCzZ2-316" value="" style="rounded=0;whiteSpace=wrap;html=1;" parent="1" vertex="1">
          <mxGeometry x="90" y="830" width="10" height="10" as="geometry" />
        </mxCell>
        <mxCell id="_7lWE-MWx_kLqU9YCzZ2-317" value="&lt;font style=&quot;font-size: 3px;&quot;&gt;0,0&lt;/font&gt;" style="rounded=0;whiteSpace=wrap;html=1;" parent="1" vertex="1">
          <mxGeometry y="840" width="10" height="10" as="geometry" />
        </mxCell>
        <mxCell id="_7lWE-MWx_kLqU9YCzZ2-318" value="" style="rounded=0;whiteSpace=wrap;html=1;" parent="1" vertex="1">
          <mxGeometry x="10" y="840" width="10" height="10" as="geometry" />
        </mxCell>
        <mxCell id="_7lWE-MWx_kLqU9YCzZ2-319" value="" style="rounded=0;whiteSpace=wrap;html=1;" parent="1" vertex="1">
          <mxGeometry x="20" y="840" width="10" height="10" as="geometry" />
        </mxCell>
        <mxCell id="_7lWE-MWx_kLqU9YCzZ2-320" value="" style="rounded=0;whiteSpace=wrap;html=1;" parent="1" vertex="1">
          <mxGeometry x="30" y="840" width="10" height="10" as="geometry" />
        </mxCell>
        <mxCell id="_7lWE-MWx_kLqU9YCzZ2-321" value="" style="rounded=0;whiteSpace=wrap;html=1;" parent="1" vertex="1">
          <mxGeometry x="40" y="840" width="10" height="10" as="geometry" />
        </mxCell>
        <mxCell id="_7lWE-MWx_kLqU9YCzZ2-322" value="" style="rounded=0;whiteSpace=wrap;html=1;" parent="1" vertex="1">
          <mxGeometry x="50" y="840" width="10" height="10" as="geometry" />
        </mxCell>
        <mxCell id="_7lWE-MWx_kLqU9YCzZ2-323" value="" style="rounded=0;whiteSpace=wrap;html=1;" parent="1" vertex="1">
          <mxGeometry x="60" y="840" width="10" height="10" as="geometry" />
        </mxCell>
        <mxCell id="_7lWE-MWx_kLqU9YCzZ2-324" value="" style="rounded=0;whiteSpace=wrap;html=1;" parent="1" vertex="1">
          <mxGeometry x="70" y="840" width="10" height="10" as="geometry" />
        </mxCell>
        <mxCell id="_7lWE-MWx_kLqU9YCzZ2-325" value="" style="rounded=0;whiteSpace=wrap;html=1;" parent="1" vertex="1">
          <mxGeometry x="80" y="840" width="10" height="10" as="geometry" />
        </mxCell>
        <mxCell id="_7lWE-MWx_kLqU9YCzZ2-326" value="&lt;font style=&quot;font-size: 3px;&quot;&gt;9,0&lt;br&gt;&lt;/font&gt;" style="rounded=0;whiteSpace=wrap;html=1;" parent="1" vertex="1">
          <mxGeometry x="90" y="840" width="10" height="10" as="geometry" />
        </mxCell>
        <mxCell id="_7lWE-MWx_kLqU9YCzZ2-327" value="" style="group" parent="1" vertex="1" connectable="0">
          <mxGeometry x="30" y="640" width="40" height="10" as="geometry" />
        </mxCell>
        <mxCell id="_7lWE-MWx_kLqU9YCzZ2-1" value="" style="rounded=0;whiteSpace=wrap;html=1;fillColor=#a20025;fontColor=#ffffff;strokeColor=#6F0000;" parent="_7lWE-MWx_kLqU9YCzZ2-327" vertex="1">
          <mxGeometry width="10" height="10" as="geometry" />
        </mxCell>
        <mxCell id="_7lWE-MWx_kLqU9YCzZ2-2" value="" style="rounded=0;whiteSpace=wrap;html=1;fillColor=#a20025;fontColor=#ffffff;strokeColor=#6F0000;" parent="_7lWE-MWx_kLqU9YCzZ2-327" vertex="1">
          <mxGeometry x="10" width="10" height="10" as="geometry" />
        </mxCell>
        <mxCell id="_7lWE-MWx_kLqU9YCzZ2-3" value="" style="rounded=0;whiteSpace=wrap;html=1;fillColor=#a20025;fontColor=#ffffff;strokeColor=#6F0000;" parent="_7lWE-MWx_kLqU9YCzZ2-327" vertex="1">
          <mxGeometry x="20" width="10" height="10" as="geometry" />
        </mxCell>
        <mxCell id="_7lWE-MWx_kLqU9YCzZ2-4" value="" style="rounded=0;whiteSpace=wrap;html=1;fillColor=#a20025;fontColor=#ffffff;strokeColor=#6F0000;" parent="_7lWE-MWx_kLqU9YCzZ2-327" vertex="1">
          <mxGeometry x="30" width="10" height="10" as="geometry" />
        </mxCell>
        <mxCell id="_7lWE-MWx_kLqU9YCzZ2-328" value="" style="group" parent="1" vertex="1" connectable="0">
          <mxGeometry x="30" y="790" width="20" height="20" as="geometry" />
        </mxCell>
        <mxCell id="_7lWE-MWx_kLqU9YCzZ2-5" value="" style="rounded=0;whiteSpace=wrap;html=1;fillColor=#008a00;fontColor=#ffffff;strokeColor=#005700;" parent="_7lWE-MWx_kLqU9YCzZ2-328" vertex="1">
          <mxGeometry width="10" height="10" as="geometry" />
        </mxCell>
        <mxCell id="_7lWE-MWx_kLqU9YCzZ2-6" value="" style="rounded=0;whiteSpace=wrap;html=1;fillColor=#008a00;fontColor=#ffffff;strokeColor=#005700;" parent="_7lWE-MWx_kLqU9YCzZ2-328" vertex="1">
          <mxGeometry x="10" width="10" height="10" as="geometry" />
        </mxCell>
        <mxCell id="_7lWE-MWx_kLqU9YCzZ2-7" value="" style="rounded=0;whiteSpace=wrap;html=1;fillColor=#008a00;fontColor=#ffffff;strokeColor=#005700;" parent="_7lWE-MWx_kLqU9YCzZ2-328" vertex="1">
          <mxGeometry y="10" width="10" height="10" as="geometry" />
        </mxCell>
        <mxCell id="_7lWE-MWx_kLqU9YCzZ2-8" value="" style="rounded=0;whiteSpace=wrap;html=1;fillColor=#008a00;fontColor=#ffffff;strokeColor=#005700;" parent="_7lWE-MWx_kLqU9YCzZ2-328" vertex="1">
          <mxGeometry x="10" y="10" width="10" height="10" as="geometry" />
        </mxCell>
        <mxCell id="_7lWE-MWx_kLqU9YCzZ2-329" value="" style="group" parent="1" vertex="1" connectable="0">
          <mxGeometry x="30" y="770" width="30" height="20" as="geometry" />
        </mxCell>
        <mxCell id="_7lWE-MWx_kLqU9YCzZ2-9" value="" style="rounded=0;whiteSpace=wrap;html=1;fillColor=#1ba1e2;fontColor=#ffffff;strokeColor=#006EAF;" parent="_7lWE-MWx_kLqU9YCzZ2-329" vertex="1">
          <mxGeometry width="10" height="10" as="geometry" />
        </mxCell>
        <mxCell id="_7lWE-MWx_kLqU9YCzZ2-10" value="" style="rounded=0;whiteSpace=wrap;html=1;fillColor=#1ba1e2;fontColor=#ffffff;strokeColor=#006EAF;" parent="_7lWE-MWx_kLqU9YCzZ2-329" vertex="1">
          <mxGeometry x="10" width="10" height="10" as="geometry" />
        </mxCell>
        <mxCell id="_7lWE-MWx_kLqU9YCzZ2-12" value="" style="rounded=0;whiteSpace=wrap;html=1;fillColor=#1ba1e2;fontColor=#ffffff;strokeColor=#006EAF;" parent="_7lWE-MWx_kLqU9YCzZ2-329" vertex="1">
          <mxGeometry x="10" y="10" width="10" height="10" as="geometry" />
        </mxCell>
        <mxCell id="_7lWE-MWx_kLqU9YCzZ2-13" value="" style="rounded=0;whiteSpace=wrap;html=1;fillColor=#1ba1e2;fontColor=#ffffff;strokeColor=#006EAF;" parent="_7lWE-MWx_kLqU9YCzZ2-329" vertex="1">
          <mxGeometry x="20" width="10" height="10" as="geometry" />
        </mxCell>
        <mxCell id="_7lWE-MWx_kLqU9YCzZ2-330" value="" style="group" parent="1" vertex="1" connectable="0">
          <mxGeometry x="30" y="810" width="30" height="20" as="geometry" />
        </mxCell>
        <mxCell id="_7lWE-MWx_kLqU9YCzZ2-22" value="" style="rounded=0;whiteSpace=wrap;html=1;fillColor=#d80073;fontColor=#ffffff;strokeColor=#A50040;" parent="_7lWE-MWx_kLqU9YCzZ2-330" vertex="1">
          <mxGeometry width="10" height="10" as="geometry" />
        </mxCell>
        <mxCell id="_7lWE-MWx_kLqU9YCzZ2-23" value="" style="rounded=0;whiteSpace=wrap;html=1;fillColor=#d80073;fontColor=#ffffff;strokeColor=#A50040;" parent="_7lWE-MWx_kLqU9YCzZ2-330" vertex="1">
          <mxGeometry x="10" width="10" height="10" as="geometry" />
        </mxCell>
        <mxCell id="_7lWE-MWx_kLqU9YCzZ2-24" value="" style="rounded=0;whiteSpace=wrap;html=1;fillColor=#d80073;fontColor=#ffffff;strokeColor=#A50040;" parent="_7lWE-MWx_kLqU9YCzZ2-330" vertex="1">
          <mxGeometry x="10" y="10" width="10" height="10" as="geometry" />
        </mxCell>
        <mxCell id="_7lWE-MWx_kLqU9YCzZ2-25" value="" style="rounded=0;whiteSpace=wrap;html=1;fillColor=#d80073;fontColor=#ffffff;strokeColor=#A50040;" parent="_7lWE-MWx_kLqU9YCzZ2-330" vertex="1">
          <mxGeometry x="20" y="10" width="10" height="10" as="geometry" />
        </mxCell>
        <mxCell id="_7lWE-MWx_kLqU9YCzZ2-331" value="" style="group" parent="1" vertex="1" connectable="0">
          <mxGeometry x="30" y="830" width="30" height="20" as="geometry" />
        </mxCell>
        <mxCell id="_7lWE-MWx_kLqU9YCzZ2-17" value="" style="rounded=0;whiteSpace=wrap;html=1;fillColor=#0050ef;fontColor=#ffffff;strokeColor=#001DBC;movable=1;resizable=1;rotatable=1;deletable=1;editable=1;locked=0;connectable=1;" parent="_7lWE-MWx_kLqU9YCzZ2-331" vertex="1">
          <mxGeometry width="10" height="10" as="geometry" />
        </mxCell>
        <mxCell id="_7lWE-MWx_kLqU9YCzZ2-18" value="" style="rounded=0;whiteSpace=wrap;html=1;fillColor=#0050ef;fontColor=#ffffff;strokeColor=#001DBC;movable=1;resizable=1;rotatable=1;deletable=1;editable=1;locked=0;connectable=1;" parent="_7lWE-MWx_kLqU9YCzZ2-331" vertex="1">
          <mxGeometry x="10" width="10" height="10" as="geometry" />
        </mxCell>
        <mxCell id="_7lWE-MWx_kLqU9YCzZ2-19" value="" style="rounded=0;whiteSpace=wrap;html=1;fillColor=#0050ef;fontColor=#ffffff;strokeColor=#001DBC;movable=1;resizable=1;rotatable=1;deletable=1;editable=1;locked=0;connectable=1;" parent="_7lWE-MWx_kLqU9YCzZ2-331" vertex="1">
          <mxGeometry x="20" width="10" height="10" as="geometry" />
        </mxCell>
        <mxCell id="_7lWE-MWx_kLqU9YCzZ2-21" value="" style="rounded=0;whiteSpace=wrap;html=1;fillColor=#0050ef;fontColor=#ffffff;strokeColor=#001DBC;movable=1;resizable=1;rotatable=1;deletable=1;editable=1;locked=0;connectable=1;" parent="_7lWE-MWx_kLqU9YCzZ2-331" vertex="1">
          <mxGeometry x="20" y="10" width="10" height="10" as="geometry" />
        </mxCell>
      </root>
    </mxGraphModel>
  </diagram>
</mxfile>
